<?xml version="1.0" standalone="no"?><!DOCTYPE svg PUBLIC "-//W3C//DTD SVG 1.1//EN" "http://www.w3.org/Graphics/SVG/1.1/DTD/svg11.dtd"><svg t="1531726866032" class="icon" style="" viewBox="0 0 1024 1024" version="1.1" xmlns="http://www.w3.org/2000/svg" p-id="1596" xmlns:xlink="http://www.w3.org/1999/xlink" width="200" height="200"><defs><style type="text/css"></style></defs><path d="M102.109867 273.066667h360.635733a17.066667 17.066667 0 0 0 17.066667-17.066667V85.333333a17.066667 17.066667 0 0 0-17.066667-17.066666H243.285333a68.266667 68.266667 0 0 0-56.797866 30.395733l-98.577067 147.8656A17.066667 17.066667 0 0 0 102.109867 273.066667zM565.162667 273.066667h360.635733a17.066667 17.066667 0 0 0 14.199467-26.538667l-98.577067-147.8656A68.266667 68.266667 0 0 0 784.622933 68.266667H565.162667a17.066667 17.066667 0 0 0-17.066667 17.066666v170.666667a17.066667 17.066667 0 0 0 17.066667 17.066667zM938.666667 341.333333H565.162667a17.066667 17.066667 0 0 0-17.066667 17.066667v249.924267c0 15.2064 18.3808 22.818133 29.1328 12.066133l80.042667-80.042667c12.014933-12.014933 31.368533-14.933333 45.1584-5.000533a34.133333 34.133333 0 0 1 4.369066 51.985067l-170.666666 170.666666c-6.656 6.673067-15.394133 10.001067-24.132267 10.001067s-17.476267-3.328-24.132267-10.001067l-169.335466-169.335466c-12.032-12.032-14.984533-31.402667-5.0688-45.2096a34.133333 34.133333 0 0 1 51.985066-4.386134l85.213867 85.213867c10.752 10.752 29.1328 3.140267 29.1328-12.066133V358.4a17.066667 17.066667 0 0 0-17.066667-17.066667H85.333333a17.066667 17.066667 0 0 0-17.066666 17.066667v529.066667a68.266667 68.266667 0 0 0 68.266666 68.266666h750.933334a68.266667 68.266667 0 0 0 68.266666-68.266666V358.4a17.066667 17.066667 0 0 0-17.066666-17.066667z" fill="#000000" p-id="1597"></path></svg>